<?xml version="1.0" standalone="no"?>
<!DOCTYPE svg PUBLIC "-//W3C//DTD SVG 20010904//EN"
 "http://www.w3.org/TR/2001/REC-SVG-20010904/DTD/svg10.dtd">
<svg version="1.0" xmlns="http://www.w3.org/2000/svg"
 width="600.000000pt" height="119.000000pt" viewBox="0 0 600.000000 119.000000"
 preserveAspectRatio="xMidYMid meet">
<g transform="translate(0.000000,119.000000) scale(0.100000,-0.100000)"
fill="#000000" stroke="none">
<path d="M229 803 c-191 -98 -176 -373 25 -457 73 -30 210 -12 251 34 22 24
10 48 -14 26 -75 -68 -234 -57 -307 21 -61 66 -75 178 -32 261 35 69 110 112
194 112 69 0 108 -11 140 -41 17 -16 23 -17 32 -6 9 11 6 18 -16 34 -71 52
-187 59 -273 16z"/>
<path d="M865 818 c-106 -38 -165 -125 -165 -240 1 -106 47 -179 145 -224 97
-46 227 -23 297 52 67 72 88 192 47 279 -26 55 -98 121 -148 135 -46 13 -137
12 -176 -2z m195 -41 c117 -62 153 -205 81 -319 -56 -88 -181 -122 -281 -77
-58 26 -77 44 -106 101 -57 112 -11 247 101 299 58 27 150 25 205 -4z"/>
<path d="M1441 580 c-2 -249 -2 -250 20 -250 21 0 21 1 18 210 -2 116 -1 210
3 210 4 0 17 -19 29 -42 35 -71 181 -308 189 -308 6 0 142 229 196 330 l19 35
3 -218 c2 -190 4 -218 18 -215 8 2 15 6 15 11 -1 4 -1 115 -1 247 0 251 -5
275 -41 212 -66 -114 -165 -284 -186 -320 l-25 -43 -42 73 c-124 214 -189 318
-201 318 -10 0 -13 -54 -14 -250z"/>
<path d="M2230 580 c0 -216 2 -250 15 -250 13 0 15 30 15 210 0 116 4 210 8
210 4 0 18 -19 30 -42 76 -147 176 -308 187 -305 11 4 82 123 162 269 26 48
51 85 55 82 4 -3 5 -99 2 -215 l-6 -209 22 0 21 0 -2 250 c-2 223 -4 251 -18
248 -9 -2 -64 -86 -123 -188 -59 -102 -111 -186 -115 -187 -4 -1 -28 32 -52
75 -122 216 -175 302 -187 302 -11 0 -14 -47 -14 -250z"/>
<path d="M3012 818 c4 -10 48 -14 166 -16 140 -2 162 0 162 13 0 13 -24 15
-166 15 -128 0 -165 -3 -162 -12z"/>
<path d="M3590 816 c0 -14 17 -16 118 -16 138 0 190 -17 217 -71 22 -41 16
-121 -11 -150 -39 -44 -73 -53 -199 -56 l-120 -3 -1 -95 c-1 -86 1 -95 17 -95
17 0 19 9 19 83 l0 83 100 -1 99 0 57 -82 c39 -56 64 -83 77 -83 17 0 18 2 6
19 -8 11 -36 49 -62 85 -46 63 -52 86 -23 86 7 0 22 8 33 18 56 48 71 153 31
212 -41 59 -86 75 -230 79 -112 3 -128 1 -128 -13z"/>
<path d="M4120 815 c0 -12 17 -15 90 -15 l90 0 0 -236 c0 -209 2 -235 16 -232
14 3 15 31 14 236 l-1 232 96 0 c78 0 95 3 95 15 0 13 -29 15 -200 15 -171 0
-200 -2 -200 -15z"/>
<path d="M4710 580 c0 -216 2 -250 15 -250 13 0 15 34 15 250 0 216 -2 250
-15 250 -13 0 -15 -34 -15 -250z"/>
<path d="M4970 815 c0 -13 26 -15 170 -15 94 0 170 -4 170 -9 0 -5 -7 -15 -16
-22 -9 -7 -37 -40 -62 -74 -25 -33 -49 -62 -52 -65 -3 -3 -18 -23 -35 -45 -16
-22 -64 -84 -107 -138 -43 -53 -78 -102 -78 -107 0 -6 76 -10 205 -10 176 0
205 2 205 15 0 13 -26 15 -175 15 -100 0 -175 4 -175 9 0 5 11 22 24 38 75 91
316 405 316 413 0 6 -75 10 -195 10 -167 0 -195 -2 -195 -15z"/>
<path d="M5580 815 c0 -13 21 -15 160 -13 216 4 218 22 3 26 -142 2 -163 0
-163 -13z"/>
<path d="M3017 593 c-20 -19 7 -23 158 -23 140 0 165 2 165 15 0 13 -24 15
-158 15 -87 0 -162 -3 -165 -7z"/>
<path d="M5580 585 c0 -13 21 -15 160 -13 216 4 218 22 3 26 -142 2 -163 0
-163 -13z"/>
<path d="M3012 348 c4 -10 48 -14 166 -16 140 -2 162 0 162 13 0 13 -24 15
-166 15 -128 0 -165 -3 -162 -12z"/>
<path d="M5580 345 c0 -13 24 -15 160 -15 136 0 160 2 160 15 0 13 -24 15
-160 15 -136 0 -160 -2 -160 -15z"/>
</g>
</svg>
