<svg version="1.1" id="Layer_1" xmlns="http://www.w3.org/2000/svg" xmlns:xlink="http://www.w3.org/1999/xlink" x="0px" y="0px"
	 width="100%" viewBox="0 0 1024 960" enable-background="new 0 0 1024 960" xml:space="preserve">
<path fill="#000000" opacity="1.000000" stroke="none" 
	d="
M249.961029,699.491333 
	C242.880966,700.601746 236.245255,699.618530 229.604340,699.206116 
	C227.286407,699.062195 225.674820,697.498901 224.062836,696.055176 
	C215.749802,688.609680 207.304596,681.301453 199.234680,673.600403 
	C196.313019,670.812195 194.111481,670.351746 190.600876,672.403076 
	C182.515915,677.127319 173.967651,679.946167 164.370407,677.397949 
	C148.887360,673.286987 138.099106,660.629578 137.263458,645.329346 
	C136.507507,631.488464 146.993881,616.915710 161.364777,611.836121 
	C183.261856,604.096436 207.023743,622.166260 205.950348,645.968262 
	C205.782272,649.695618 206.636215,652.172302 209.412079,654.599426 
	C217.437637,661.616821 225.270126,668.856445 233.119247,676.073181 
	C235.194687,677.981384 237.458832,678.933533 240.308655,678.931519 
	C283.137665,678.901550 325.966705,678.926147 368.795715,678.905945 
	C370.062073,678.905396 371.467621,679.232605 372.640564,678.117371 
	C372.520935,675.880676 370.769470,674.756531 369.346619,673.442078 
	C358.335114,663.269714 347.251251,653.174683 336.319336,642.917664 
	C332.861511,639.673340 329.241913,638.048645 324.305939,638.113342 
	C303.810333,638.381775 283.300720,637.908020 262.814972,638.434143 
	C255.020905,638.634338 249.256622,636.088196 243.561310,631.148254 
	C219.284592,610.091248 194.818771,589.250549 170.272629,568.507690 
	C166.377243,565.215881 164.482651,561.791748 164.635071,556.568604 
	C164.975204,544.912842 164.443375,533.230042 164.845978,521.578308 
	C165.058899,515.416504 163.122971,511.531799 157.775513,508.143097 
	C143.232178,498.927063 139.262146,483.846344 146.499146,468.088470 
	C151.493652,457.213440 165.724213,448.222504 177.779007,449.102905 
	C191.651459,450.116119 202.232941,456.810516 207.772339,469.815948 
	C213.263443,482.707977 210.034821,494.231415 200.648788,504.277863 
	C198.010666,507.101654 195.239166,509.871124 191.525513,511.077454 
	C187.606415,512.350464 186.577606,515.123901 186.511520,518.715576 
	C186.300156,530.205017 185.836288,541.694336 186.950684,553.172485 
	C187.162994,555.359314 188.104004,556.858765 189.719955,558.220276 
	C212.264618,577.215210 234.779633,596.245300 257.315796,615.250366 
	C259.123535,616.774841 261.121796,617.891602 263.625061,617.894958 
	C279.289612,617.916077 294.954071,617.981995 310.618591,618.000183 
	C311.749908,618.001465 312.968781,618.077087 314.023071,617.062195 
	C314.358521,614.682495 312.276093,613.741882 310.901184,612.506226 
	C290.340179,594.026245 269.905029,575.396790 248.433334,557.966370 
	C245.143768,555.295898 243.711334,552.435730 243.718643,548.198120 
	C243.815063,492.201202 243.813568,436.204010 243.712906,380.207092 
	C243.705765,376.234772 245.140701,373.723938 248.360916,371.563690 
	C273.396301,354.769012 298.827362,338.587372 324.175598,322.275513 
	C328.144012,319.721802 330.994690,319.871918 334.864594,322.782166 
	C351.105347,334.995483 367.585815,346.893311 384.105011,358.730164 
	C387.282684,361.007202 388.433228,363.411926 388.497284,367.407654 
	C388.774750,384.714386 388.466064,402.020477 388.758453,419.330231 
	C389.185638,444.623322 388.617340,469.932983 388.493317,495.235687 
	C388.390503,516.216492 388.216919,537.197632 388.271637,558.178162 
	C388.298981,568.668274 388.727325,579.158447 389.050812,589.646179 
	C389.221405,595.177307 392.023193,599.460571 396.003204,603.006653 
	C413.664520,618.742310 431.371185,634.427124 449.054260,650.138428 
	C456.524597,656.775818 463.774200,663.681152 471.498901,670.007019 
	C478.239441,675.527100 481.043762,682.286072 480.978607,690.867371 
	C480.805328,713.696350 480.937378,736.527649 480.970367,759.358032 
	C480.973755,761.686462 480.955261,764.037231 481.254028,766.337708 
	C481.693268,769.719360 483.886261,771.772888 487.155701,772.248352 
	C490.317230,772.708130 493.046875,771.693970 494.789978,768.703064 
	C496.175018,766.326416 496.796906,763.795288 496.797668,761.072144 
	C496.805969,732.241150 496.733307,703.409668 496.879150,674.579346 
	C496.926697,665.184937 491.488739,659.418274 484.982849,653.784058 
	C460.564362,632.637268 435.875610,611.798035 411.984863,590.045227 
	C408.731201,587.082764 407.848633,583.481079 407.854340,579.273560 
	C407.909851,538.276917 407.912628,497.280212 407.878052,456.283539 
	C407.851929,425.285522 408.451080,394.266052 407.501984,363.295074 
	C406.337830,325.306549 407.076569,287.330048 406.671295,249.351181 
	C406.561188,239.035324 406.539581,228.716354 406.241638,218.405624 
	C406.109100,213.819138 408.712219,211.449692 412.182220,209.419128 
	C425.257812,201.767471 438.301971,194.062057 451.388397,186.429001 
	C474.824402,172.759232 498.323730,159.197144 521.685425,145.401810 
	C525.061646,143.408127 527.650513,143.469696 530.844604,145.495453 
	C565.446655,167.441330 601.240173,187.388657 636.511719,208.210953 
	C640.858704,210.777191 642.332031,213.642548 642.315369,218.560135 
	C642.139282,270.389587 642.178772,322.219788 642.160522,374.049774 
	C642.160095,375.216309 642.134888,376.385345 642.198914,377.548950 
	C642.449646,382.104034 643.905029,382.859741 647.782837,380.263885 
	C669.366455,365.815613 690.950195,351.366821 712.451111,336.796173 
	C715.012390,335.060455 717.072937,334.874664 719.763550,336.347961 
	C745.617065,350.504456 771.494324,364.618378 797.433044,378.617798 
	C800.923950,380.501862 802.374512,382.800110 802.365601,386.879028 
	C802.247009,441.041901 802.235779,495.205322 802.402039,549.367981 
	C802.415161,553.642456 800.524963,556.118958 797.673584,558.633789 
	C776.192078,577.580627 754.739624,596.560669 733.343506,615.603821 
	C730.648132,618.002808 727.817383,620.368103 725.865906,623.520813 
	C727.359680,625.585083 729.344421,624.830017 731.027832,624.833862 
	C746.359497,624.869263 761.691895,624.748169 777.022827,624.850464 
	C780.405945,624.873047 783.149719,624.023438 785.622498,621.708313 
	C810.059692,598.828491 834.806641,576.288269 859.919983,554.151611 
	C861.480835,552.775757 862.445984,551.220337 862.400085,548.969482 
	C862.165710,537.477539 861.961792,525.983398 861.944031,514.489807 
	C861.939636,511.643921 860.983765,509.984131 858.531067,508.498657 
	C840.787048,497.752136 839.497559,481.626465 843.350281,470.075165 
	C848.921143,453.372498 867.791504,443.807281 883.920715,449.303101 
	C901.319885,455.231628 910.358093,473.432007 904.262634,490.774017 
	C901.626953,498.272980 896.374146,503.924591 889.563049,507.842255 
	C886.679993,509.500641 885.459961,511.438019 885.516113,514.561768 
	C885.731812,526.549683 885.744873,538.544373 886.183044,550.523804 
	C886.375671,555.790466 884.704468,559.696289 880.788940,563.226868 
	C856.541809,585.089783 832.330505,606.994995 808.733521,629.565002 
	C804.401611,633.708313 799.982300,637.774841 795.873047,642.131226 
	C793.104065,645.066650 789.871338,646.127930 786.038818,646.056396 
	C762.052673,645.608521 738.047546,646.727966 714.078125,645.360779 
	C707.375000,644.978394 702.145325,646.482971 697.102112,651.461548 
	C682.525208,665.851562 667.355774,679.640930 652.445435,693.694275 
	C651.279846,694.792908 649.676025,695.659973 649.650879,697.636597 
	C650.863892,699.315491 652.689575,698.770020 654.247803,698.771362 
	C666.413330,698.781799 678.578918,698.664368 690.744446,698.666382 
	C694.867432,698.667114 697.972290,697.699829 699.921509,693.409607 
	C702.058899,688.704834 705.537231,684.808472 709.643738,681.508728 
	C724.112671,669.882263 742.779236,672.121948 754.089417,686.927124 
	C754.493896,687.456482 755.016602,687.959290 755.226318,688.563904 
	C758.074890,696.776245 764.372070,697.862000 771.913147,697.044983 
	C775.697632,696.634949 779.631226,696.614380 783.390442,697.157532 
	C791.933350,698.392151 798.213440,695.103577 804.098755,689.115540 
	C814.720642,678.308411 825.756348,667.894775 836.896912,657.617920 
	C840.544983,654.252747 841.911011,650.743347 841.791077,645.845825 
	C841.396423,629.724365 849.422546,618.082397 864.321960,612.373047 
	C885.095398,604.412842 908.925354,620.826843 909.361450,643.058044 
	C909.638184,657.170105 902.576416,666.799072 891.447021,673.850647 
	C880.274902,680.929260 868.786377,679.189819 857.817871,673.018127 
	C854.772888,671.304749 852.951294,671.426025 850.486206,673.825928 
	C836.521423,687.421753 822.366455,700.822144 808.406006,714.422302 
	C805.707397,717.051270 802.935669,718.302917 799.122192,718.235962 
	C787.633362,718.034302 776.138306,718.217590 764.647339,718.095337 
	C761.355957,718.060364 759.374268,718.935242 757.542725,722.098450 
	C751.453674,732.614807 742.547974,739.812622 729.953613,739.990479 
	C716.992371,740.173523 706.871826,734.182861 700.328003,722.868225 
	C698.776917,720.186279 697.070496,719.052307 694.050293,719.060608 
	C675.552490,719.111450 657.054199,719.086975 638.556458,718.999451 
	C633.744995,718.976685 631.351929,721.422241 631.294250,725.957825 
	C631.133301,738.621094 631.062500,751.288208 631.196045,763.951233 
	C631.251770,769.232178 633.581116,770.944885 639.912170,770.945679 
	C673.577148,770.949707 707.242065,770.907532 740.907043,770.891418 
	C775.238342,770.875061 809.569580,770.870544 843.900879,770.860901 
	C844.234192,770.860840 844.567505,770.860474 844.900818,770.863159 
	C853.324219,770.930298 857.289612,773.701050 857.481873,779.653809 
	C857.678528,785.739136 854.024658,788.745178 845.722656,789.524109 
	C838.736267,790.179565 831.794861,790.091858 824.784058,789.534668 
	C818.170349,789.009094 811.499573,789.035583 804.834900,789.837341 
	C797.036316,790.775391 789.180237,789.141357 781.418945,789.462097 
	C762.104736,790.260193 742.772583,788.328003 723.549255,789.527100 
	C709.344116,790.413208 695.297852,788.874817 681.177734,789.256287 
	C668.561768,789.597107 655.915344,790.367371 643.326416,789.858521 
	C609.018555,788.471680 574.701416,789.429016 540.391418,788.907654 
	C508.923370,788.429565 477.415253,789.821716 445.970276,788.876465 
	C426.997345,788.306091 408.055328,789.022217 389.100403,788.707214 
	C371.353790,788.412415 353.485291,788.231628 335.711914,789.903198 
	C330.949402,790.351196 326.053741,790.303589 321.304504,789.750732 
	C314.637817,788.974731 307.956268,788.886658 301.349792,789.360229 
	C292.684418,789.981262 284.081299,789.484680 275.446930,789.480835 
	C257.982117,789.473206 240.511246,789.305054 223.055542,789.498169 
	C214.569809,789.592102 206.126572,788.844666 197.659119,789.140564 
	C195.129913,789.228943 192.684692,788.793884 190.473145,787.414917 
	C187.213638,785.382446 186.372635,782.272522 186.769760,778.754456 
	C187.154602,775.344910 189.372559,773.547546 192.605560,772.760925 
	C196.042160,771.924744 199.533447,771.817383 203.034958,771.805847 
	C227.698868,771.724609 252.375092,772.118591 277.023590,771.464172 
	C306.187683,770.689697 335.342865,771.254517 364.500610,771.019592 
	C378.985046,770.902954 393.471588,771.077026 407.957153,771.064392 
	C414.415192,771.058777 415.929871,769.540039 415.928680,763.081177 
	C415.926361,750.582397 415.779388,738.083313 415.834015,725.584961 
	C415.860229,719.584290 413.595703,715.190491 409.314758,710.714294 
	C401.049866,702.072449 392.020569,698.712463 379.803558,698.948792 
	C336.673767,699.783020 293.520203,699.389282 249.961029,699.491333 
M513.415100,680.710205 
	C513.945801,703.830139 514.488281,726.949768 514.997009,750.070190 
	C515.095886,754.564148 514.789734,759.083984 515.165100,763.550293 
	C515.574341,768.419067 520.130737,772.446106 524.508606,772.411133 
	C529.152039,772.374023 532.202209,769.134155 532.742554,763.450562 
	C532.962585,761.135315 532.933044,758.790527 532.917908,756.459778 
	C532.730286,727.518555 531.735229,698.587891 532.560364,669.632629 
	C533.101196,650.654785 533.044678,631.649170 532.801636,612.661804 
	C532.324219,575.366394 534.163940,538.050049 531.796387,500.773041 
	C531.425354,494.931763 527.852783,491.431305 522.280579,491.474365 
	C516.117981,491.522003 512.486755,494.781189 512.463745,501.016418 
	C512.368591,526.828430 511.604950,552.644165 512.873413,578.453674 
	C513.059753,582.245728 513.882568,586.278870 512.102722,589.793640 
	C510.004120,589.988586 509.012634,589.065186 508.036438,588.162781 
	C494.589172,575.731812 480.037506,564.545349 466.968628,551.684631 
	C464.365234,549.122681 461.719452,546.541443 458.461121,544.781311 
	C453.812378,542.270142 448.811005,543.218018 445.895935,547.066956 
	C443.301025,550.493164 443.760712,555.871826 447.079742,559.395813 
	C448.789673,561.211304 450.634888,562.910156 452.511566,564.556152 
	C471.413879,581.134460 490.319641,597.708984 509.270355,614.231873 
	C511.799622,616.437073 513.202209,618.804626 513.190979,622.367615 
	C513.130554,641.524109 513.299316,660.681396 513.415100,680.710205 
M313.106110,596.361145 
	C336.136658,615.811646 359.234161,635.183533 382.176483,654.737549 
	C400.431793,670.296753 418.476471,686.102844 436.667145,701.738281 
	C439.848999,704.473206 440.692444,707.574219 440.650970,711.821411 
	C440.483704,728.952759 440.765778,746.091797 441.121490,763.223022 
	C441.246643,769.248779 444.750641,772.267761 450.294250,771.980042 
	C455.372009,771.716492 457.758606,768.887329 457.764069,762.833008 
	C457.783020,741.835815 457.677673,720.838318 457.777710,699.841675 
	C457.805420,694.029907 455.513153,689.817871 451.064423,686.136108 
	C425.285675,664.801880 399.634766,643.312988 373.951294,621.863708 
	C360.147583,610.335754 346.407379,598.731201 332.539703,587.280884 
	C329.529785,584.795593 328.598175,581.908508 328.633392,578.128784 
	C328.774567,562.965576 328.750305,547.799805 328.645203,532.635925 
	C328.597321,525.724548 325.081726,522.160217 318.741486,522.112305 
	C311.820190,522.060059 308.400818,525.285950 307.946625,532.297485 
	C306.815338,549.762695 308.135284,567.222656 308.030029,584.684631 
	C308.003143,589.136902 309.351288,592.831909 313.106110,596.361145 
M565.809326,736.500000 
	C565.759949,716.028870 565.760803,695.557434 565.619751,675.086975 
	C565.590698,670.870667 566.488037,667.416809 569.826355,664.441406 
	C582.506409,653.140076 595.104004,641.742249 607.556580,630.190857 
	C621.228760,617.508240 634.731018,604.641846 648.251526,591.796753 
	C651.376160,588.828064 652.814026,585.108459 651.186890,580.903137 
	C649.475525,576.480042 645.556641,575.003906 641.219727,574.527283 
	C637.906982,574.163269 635.563293,576.155334 633.351929,578.233215 
	C621.456970,589.409973 609.652344,600.684448 597.650513,611.744995 
	C594.089844,615.026306 590.706482,618.680054 586.454346,621.033447 
	C584.316223,618.914856 584.913818,616.818604 584.908936,614.891052 
	C584.865784,597.730347 584.949768,580.568848 584.809998,563.409058 
	C584.757263,556.935425 581.347595,553.330627 575.718750,553.071350 
	C568.986511,552.761292 565.497070,555.588257 564.578918,562.408508 
	C564.180420,565.369202 564.096558,568.390015 564.095337,571.383606 
	C564.086731,592.195740 563.862610,613.013794 564.307312,633.817139 
	C564.479797,641.884277 562.837708,648.434998 556.280151,653.603760 
	C551.593628,657.297729 549.629395,662.255615 549.950195,668.531006 
	C550.442932,678.169983 550.126953,687.851135 550.125122,697.514404 
	C550.121033,719.508179 550.053223,741.502014 550.119507,763.495544 
	C550.134705,768.533691 552.848572,771.603638 556.877014,771.795898 
	C561.245605,772.004395 564.734558,769.159729 565.514404,764.473022 
	C565.867065,762.353088 565.834839,760.156555 565.842773,757.994202 
	C565.867859,751.162903 565.829346,744.331421 565.809326,736.500000 
M661.338440,649.836060 
	C664.295715,647.148071 667.226196,644.429932 670.214783,641.777283 
	C683.539978,629.950134 696.922180,618.186707 710.196838,606.303162 
	C715.192810,601.830627 718.691040,596.594910 718.203125,589.355530 
	C717.901978,584.887756 717.900940,580.352173 718.295837,575.894104 
	C719.359558,563.886230 717.920654,551.929443 717.896301,539.948242 
	C717.890259,536.986267 716.456299,534.830078 713.785645,533.628662 
	C705.807251,530.039307 699.230164,534.190247 699.161377,542.909302 
	C699.046875,557.405334 698.997375,571.902161 698.986938,586.398621 
	C698.984375,589.910706 698.103455,592.833618 695.305664,595.252930 
	C681.703613,607.015015 668.190247,618.879700 654.647522,630.710388 
	C635.082703,647.801697 615.507568,664.881165 595.966248,681.999329 
	C592.199219,685.299316 589.418701,689.472900 589.373352,694.491699 
	C589.164001,717.650330 589.176758,740.812195 589.312500,763.971741 
	C589.342285,769.048706 592.700623,771.860657 597.701782,771.964294 
	C601.874390,772.050781 605.542297,768.819824 605.576294,764.002380 
	C605.701965,746.177185 605.954895,728.331238 605.210083,710.532837 
	C604.937866,704.025879 606.334534,699.385986 611.042480,695.091431 
	C627.531067,680.050964 643.740906,664.703674 661.338440,649.836060 
M453.223877,442.460846 
	C453.222443,444.620575 453.379791,446.794647 453.186401,448.937042 
	C452.788025,453.350281 454.828888,454.852264 459.046875,454.700073 
	C465.186310,454.478516 471.337952,454.609680 477.484100,454.554626 
	C481.287628,454.520569 483.208130,452.830933 483.128265,448.749786 
	C482.955994,439.947845 483.069366,431.140686 483.012634,422.335999 
	C482.976044,416.652893 481.758087,415.345520 475.881561,415.365601 
	C469.910675,415.386078 463.941559,415.890564 457.970581,415.914581 
	C454.317291,415.929260 452.905487,417.524689 452.982269,421.042389 
	C453.130951,427.851318 453.144592,434.663239 453.223877,442.460846 
M466.863037,354.357758 
	C464.708557,354.421722 462.551056,354.590881 460.400146,354.529633 
	C454.274902,354.355194 453.202972,354.988922 453.491364,361.124298 
	C453.889465,369.595367 453.501953,378.034424 453.187286,386.474335 
	C453.024872,390.830139 454.807220,392.598297 458.932190,392.508026 
	C465.560913,392.362976 472.189087,392.164734 478.818604,392.098999 
	C481.762665,392.069794 482.812653,390.650024 483.083618,387.837463 
	C483.945892,378.887634 483.745789,369.927216 483.601410,360.968109 
	C483.531189,356.612000 481.370239,354.208405 476.741699,354.374268 
	C473.757721,354.481232 470.765900,354.369476 466.863037,354.357758 
M458.027527,330.900574 
	C464.690765,330.893890 471.354919,330.818146 478.016815,330.909332 
	C481.396057,330.955536 482.847961,329.504791 482.823181,326.129730 
	C482.755951,316.968353 482.695557,307.803772 482.875244,298.645203 
	C482.959808,294.335327 480.853149,292.471924 476.926971,292.411835 
	C470.933136,292.320129 464.934906,292.416504 458.940125,292.522705 
	C455.146332,292.589844 453.228516,294.340485 453.328217,298.434448 
	C453.559113,307.915405 453.505096,317.403046 453.619232,326.887329 
	C453.646484,329.153046 454.640350,330.729645 458.027527,330.900574 
M591.825928,453.623779 
	C594.620667,453.358032 595.910400,451.889984 595.891846,449.016693 
	C595.830444,439.518463 595.857483,430.019470 595.888184,420.520905 
	C595.897339,417.693542 594.739197,416.144592 591.751648,416.144867 
	C584.419800,416.145538 577.087952,416.094299 569.756165,416.050598 
	C566.916016,416.033691 565.192017,417.300232 565.488525,420.256317 
	C566.439636,429.736420 565.786499,439.238495 565.979919,448.727570 
	C566.058655,452.585083 567.669617,454.127350 571.443420,454.013702 
	C577.938660,453.818085 584.439148,453.798584 591.825928,453.623779 
M566.122437,321.402710 
	C566.106384,322.234985 566.076721,323.067291 566.076477,323.899567 
	C566.074707,330.353790 566.429626,330.752411 572.764526,330.785370 
	C578.757935,330.816559 584.753845,330.663635 590.744568,330.788574 
	C594.279358,330.862274 595.939758,329.593994 595.884583,325.866791 
	C595.746521,316.545258 595.757874,307.220093 595.839539,297.897522 
	C595.869324,294.496368 594.389343,293.069885 591.051086,293.087311 
	C584.393066,293.122101 577.732300,293.114380 571.076660,292.954865 
	C567.489746,292.868958 565.917297,294.310333 565.990479,297.952728 
	C566.140930,305.442108 566.103882,312.935272 566.122437,321.402710 
M576.592102,354.308533 
	C575.096252,354.305389 573.591309,354.407898 572.106323,354.279358 
	C567.629395,353.891815 565.801025,355.792603 565.913330,360.353180 
	C566.130188,369.156525 566.104614,377.970703 565.945740,386.776154 
	C565.875366,390.677917 567.399292,392.086151 571.256714,391.962372 
	C577.898193,391.749237 584.552795,391.802765 591.198669,391.922791 
	C594.605713,391.984283 595.964722,390.585876 595.927490,387.190308 
	C595.827332,378.050415 595.818848,368.907257 595.955261,359.768097 
	C596.013428,355.869049 594.147278,354.366730 590.527039,354.369812 
	C586.205811,354.373474 581.884583,354.343842 576.592102,354.308533 
M580.526611,269.714172 
	C583.852600,269.736786 587.184875,269.639771 590.502930,269.813812 
	C594.247009,270.010132 596.021790,268.609161 595.953613,264.658264 
	C595.801697,255.846725 595.791260,247.030136 595.901123,238.217819 
	C595.954834,233.911926 593.845947,232.208084 589.817993,232.192337 
	C583.831238,232.168930 577.840637,232.221100 571.859192,232.019211 
	C567.797668,231.882141 566.098816,233.618881 566.173279,237.628082 
	C566.290588,243.945480 566.223633,250.266449 566.220337,256.585907 
	C566.213013,270.649719 565.183044,269.744873 580.526611,269.714172 
M539.019043,435.498566 
	C539.025391,431.167358 539.065979,426.835907 539.029907,422.505035 
	C538.978455,416.327332 537.750610,415.025085 531.747253,415.446808 
	C526.255066,415.832642 520.797791,416.200104 515.302490,415.455963 
	C511.849457,414.988342 509.936279,416.460022 509.970886,420.193359 
	C510.061981,430.020660 510.093903,439.848846 510.077423,449.676575 
	C510.072571,452.554138 511.218353,454.019897 514.215027,453.969391 
	C521.042786,453.854218 527.871765,453.789948 534.700500,453.757660 
	C537.596558,453.743958 539.001465,452.351349 539.005188,449.487976 
	C539.010925,445.157623 539.012695,440.827301 539.019043,435.498566 
M510.201904,357.114105 
	C509.088318,367.424133 510.583374,377.738556 510.152283,388.050354 
	C510.057007,390.328766 510.840637,392.131165 513.411133,392.145233 
	C520.714111,392.185242 528.010071,393.259491 535.324829,392.218903 
	C537.972778,391.842194 539.056763,390.429260 539.033630,387.855621 
	C538.948181,378.361145 538.880066,368.866364 538.853455,359.371582 
	C538.846252,356.804718 537.771362,355.280182 535.155396,354.953918 
	C527.699646,354.023895 520.220276,354.457397 512.749084,354.604797 
	C511.747192,354.624542 510.929840,355.372528 510.201904,357.114105 
M453.374084,239.635406 
	C453.161224,247.265305 454.220062,254.870453 453.539124,262.534302 
	C453.263611,265.635590 453.173157,269.709595 458.182648,269.749176 
	C464.995148,269.803009 471.809296,269.696960 478.622253,269.617767 
	C481.260254,269.587097 482.619781,268.112061 482.601929,265.530823 
	C482.536560,256.081696 482.444183,246.632385 482.286865,237.184387 
	C482.219910,233.162750 479.930115,231.796432 476.073181,231.944778 
	C470.763245,232.149048 465.440369,232.025513 460.123016,232.026978 
	C453.660828,232.028763 453.403076,232.275864 453.374084,239.635406 
M510.215149,305.522583 
	C510.245880,312.349152 510.372070,319.177185 510.266418,326.001648 
	C510.214691,329.345032 511.452057,330.942413 514.902283,330.886597 
	C521.394592,330.781555 527.890076,330.751984 534.382629,330.826599 
	C537.570862,330.863220 538.902588,329.446259 538.881470,326.321869 
	C538.817444,316.831482 538.770203,307.339966 538.856873,297.850159 
	C538.888306,294.401550 537.278259,293.024841 534.022461,293.042175 
	C530.026550,293.063507 526.030396,293.025848 522.034302,293.016205 
	C510.353943,292.988037 510.353943,292.988525 510.215149,305.522583 
M510.384827,253.530182 
	C510.404510,257.352173 510.406799,261.174377 510.449219,264.996124 
	C510.485291,268.246490 512.083130,269.846771 515.412231,269.808289 
	C521.560425,269.737244 527.712769,269.646027 533.857483,269.800201 
	C537.843994,269.900208 539.085693,267.995880 539.024658,264.320801 
	C538.878479,255.515091 538.837463,246.706161 538.886963,237.899292 
	C538.909546,233.889862 537.024597,232.112091 533.135132,232.134186 
	C527.485168,232.166306 521.823730,232.387711 516.188843,232.101288 
	C511.971344,231.886917 510.483093,233.773132 510.485718,237.622925 
	C510.489136,242.600174 510.423340,247.577469 510.384827,253.530182 
M657.452026,469.118652 
	C653.791748,469.140350 650.130066,469.231476 646.471558,469.161926 
	C643.514954,469.105743 642.254822,470.438843 642.272339,473.369507 
	C642.332092,483.351715 642.358582,493.334747 642.289978,503.316742 
	C642.267944,506.519409 643.668091,507.796417 646.809448,507.754303 
	C652.798279,507.674072 658.792664,507.645203 664.778076,507.822327 
	C668.389648,507.929230 669.891541,506.575134 669.808533,502.877380 
	C669.640503,495.393402 669.778076,487.903046 669.741516,480.415527 
	C669.687134,469.284912 669.669434,469.285004 657.452026,469.118652 
M358.025787,491.453369 
	C359.131714,482.004120 358.162506,472.522034 358.416870,463.056458 
	C358.502472,459.872833 357.198822,457.142365 353.179413,457.143219 
	C346.853546,457.144592 340.527466,457.098724 334.201874,457.035645 
	C331.241730,457.006104 330.023285,458.505035 330.037170,461.359955 
	C330.084839,471.182068 330.120270,481.004517 330.082733,490.826569 
	C330.071442,493.777588 331.392822,495.062500 334.306580,495.036743 
	C340.792267,494.979431 347.278870,495.030823 353.764679,494.981567 
	C355.655182,494.967224 357.505524,494.703430 358.025787,491.453369 
M350.185333,433.863617 
	C356.704895,433.657837 358.118439,432.688446 358.213348,427.091339 
	C358.359772,418.460052 358.120331,409.822357 358.049469,401.187317 
	C358.017609,397.304352 355.995667,395.362000 352.185791,395.310577 
	C346.538727,395.234344 340.889008,395.310333 335.243347,395.188263 
	C331.725067,395.112183 330.086609,396.493652 330.128906,400.175568 
	C330.235748,409.476593 330.240967,418.781830 330.076080,428.081604 
	C330.002655,432.222260 332.001251,433.766937 335.801880,433.778137 
	C340.286987,433.791382 344.772034,433.831055 350.185333,433.863617 
M697.741699,469.155701 
	C694.767944,469.082825 691.965637,469.049927 692.012939,473.333008 
	C692.121338,483.142365 692.107544,492.953461 692.078735,502.763641 
	C692.070068,505.719635 693.087646,507.637695 696.327515,507.611572 
	C702.309448,507.563354 708.290955,507.458954 714.272644,507.381409 
	C717.457092,507.340149 719.227173,505.827637 719.312683,502.555023 
	C719.377686,500.068481 719.761047,497.539490 719.439941,495.103577 
	C718.608093,488.793793 718.861877,482.494720 719.193420,476.192993 
	C719.451660,471.285309 718.055420,469.418243 713.147949,469.236084 
	C708.331970,469.057373 703.505005,469.174164 697.741699,469.155701 
M642.153870,420.539001 
	C642.204956,427.014069 642.353943,433.490417 642.268066,439.963654 
	C642.221191,443.496674 643.542419,445.192810 647.216797,445.107727 
	C652.859070,444.977081 658.508301,444.950928 664.150452,445.071198 
	C668.153870,445.156525 669.900269,443.422424 669.851624,439.423187 
	C669.748718,430.956482 669.911499,422.485840 669.752197,414.020813 
	C669.655029,408.859344 667.937866,407.379883 662.636597,407.284637 
	C659.815369,407.233978 656.991699,407.304260 654.169250,407.334167 
	C642.031189,407.462891 642.278687,405.157837 642.153870,420.539001 
M282.694794,494.790833 
	C289.874603,496.853302 297.165131,494.505463 304.406494,495.311157 
	C307.044281,495.604614 307.835754,493.287964 307.822113,490.819397 
	C307.769775,481.350433 307.737000,471.880890 307.796448,462.412140 
	C307.817322,459.086823 306.213287,457.406769 303.043762,457.317230 
	C297.233673,457.153076 291.419006,457.155640 285.606354,457.078857 
	C282.535492,457.038300 280.997192,458.511566 281.000885,461.609680 
	C281.006866,466.592926 280.732178,471.591278 281.033112,476.555573 
	C281.391602,482.469299 279.985474,488.485718 282.694794,494.790833 
M757.303345,506.820526 
	C765.504761,506.742340 765.731506,506.530029 765.747314,498.393951 
	C765.762512,490.569305 765.678772,482.743866 765.769592,474.920288 
	C765.815430,470.970123 764.180054,469.062744 760.120667,469.155426 
	C754.629211,469.280823 749.132935,469.284485 743.640137,469.220184 
	C740.435364,469.182709 739.167419,470.709869 739.165344,473.792816 
	C739.158997,483.280457 739.108032,492.768494 738.994995,502.255432 
	C738.954285,505.667450 740.484253,507.016724 743.865112,506.879425 
	C748.020325,506.710693 752.187256,506.830688 757.303345,506.820526 
M299.421600,433.467896 
	C302.638916,432.458679 307.797913,434.676971 307.764557,428.305542 
	C307.717468,419.313568 307.765717,410.321075 307.776550,401.328827 
	C307.781525,397.210602 305.757416,395.014709 301.616730,395.324738 
	C296.628876,395.698120 291.660522,395.765656 286.667664,395.487518 
	C282.781799,395.271057 280.962891,397.052704 281.049164,401.171722 
	C281.233948,409.993561 281.244110,418.824677 281.057922,427.646332 
	C280.964417,432.077850 283.252991,433.641388 287.134125,433.689697 
	C290.957275,433.737305 294.783020,433.575775 299.421600,433.467896 
M692.040588,425.502991 
	C692.082031,430.498444 692.203125,435.494995 692.135864,440.488983 
	C692.093628,443.625214 693.357422,445.060638 696.573547,444.996460 
	C702.399536,444.880249 708.231140,444.837036 714.056335,444.957672 
	C717.705017,445.033203 719.365967,443.159821 719.331116,439.848572 
	C719.236816,430.875031 719.003723,421.901398 718.694824,412.932312 
	C718.571045,409.337158 716.373535,407.489563 712.858459,407.427765 
	C707.531738,407.334076 702.201294,407.343872 696.874084,407.422089 
	C693.628601,407.469696 692.073364,409.253601 692.096375,412.517303 
	C692.124573,416.513214 692.060303,420.509766 692.040588,425.502991 
M751.520325,444.938354 
	C754.351868,444.958008 757.191650,444.848907 760.013123,445.027527 
	C764.270630,445.296997 765.993286,443.560028 765.872742,439.198059 
	C765.638062,430.709137 765.591858,422.204102 765.843628,413.716888 
	C765.982483,409.034332 763.749756,407.416595 759.583130,407.393890 
	C754.758606,407.367615 749.924500,407.571747 745.111816,407.330872 
	C740.738037,407.111938 739.080933,409.038727 739.151672,413.221466 
	C739.267151,420.048920 739.240845,426.879639 739.204773,433.708618 
	C739.136841,446.576721 738.682434,444.838135 751.520325,444.938354 
M171.097778,492.628723 
	C177.703629,494.714600 183.111755,493.332825 186.302582,488.743896 
	C188.662888,485.349396 188.577927,478.799927 186.080627,475.521942 
	C182.606049,470.961121 177.856033,470.145630 172.642776,471.306641 
	C168.165909,472.303619 165.330246,475.248444 164.516541,479.756470 
	C163.528336,485.231323 165.281326,489.604156 171.097778,492.628723 
M875.934692,469.569641 
	C869.240845,469.215149 864.491272,472.175781 862.832458,477.736938 
	C861.352905,482.697144 863.209534,487.911591 867.602417,490.112579 
	C872.107544,492.369812 876.835327,493.000397 881.295288,489.967285 
	C885.307861,487.238434 886.449890,483.150116 885.618103,478.587830 
	C884.722412,473.675751 881.561340,470.794586 875.934692,469.569641 
M725.465454,718.452576 
	C727.118652,718.619202 728.775940,718.960571 730.424255,718.921204 
	C736.513367,718.775818 740.611145,714.548889 740.786377,708.387207 
	C740.978638,701.626343 736.980164,696.829224 730.783875,696.386780 
	C724.792725,695.959045 720.543884,698.437622 718.871704,703.335876 
	C716.794678,709.419678 718.741577,714.340820 725.465454,718.452576 
M168.196350,633.175537 
	C166.446457,633.432739 165.236801,634.583130 164.023666,635.716614 
	C159.783646,639.678223 159.066940,645.786926 162.265472,650.625854 
	C164.931564,654.659180 170.745789,656.343262 175.555054,654.475281 
	C180.820099,652.430298 183.478149,647.396423 182.349030,641.608704 
	C181.072250,635.064148 177.704437,632.902161 168.196350,633.175537 
M877.632690,632.872620 
	C870.706482,631.795593 865.508728,635.578369 865.059937,642.022766 
	C864.470642,650.482849 868.083923,654.920471 875.583557,654.947144 
	C881.017334,654.966492 885.843933,651.475647 886.731689,646.884216 
	C887.996399,640.343323 885.326477,635.948914 877.632690,632.872620 
z"/>
</svg>